<svg width="1024" height="1024" viewBox="0 0 1024 1024" fill="none" xmlns="http://www.w3.org/2000/svg">
<g clip-path="url(#clip0_1_2)">
<rect width="1024" height="1024" fill="#0D1120"/>
<path d="M512 1024C794.77 1024 1024 794.77 1024 512C1024 229.23 794.77 0 512 0C229.23 0 0 229.23 0 512C0 794.77 229.23 1024 512 1024Z" fill="#0D1120"/>
<path d="M512 1024C794.77 1024 1024 794.77 1024 512C1024 229.23 794.77 0 512 0C229.23 0 0 229.23 0 512C0 794.77 229.23 1024 512 1024Z" stroke="#0EA5E9" stroke-opacity="0.12549" stroke-width="0.5"/>
<path d="M378.88 358.4C351.041 373.248 327.76 395.382 311.528 422.437C295.295 449.491 286.72 480.449 286.72 512C286.72 543.551 295.295 574.509 311.528 601.563C327.76 628.618 351.041 650.753 378.88 665.6" stroke="#0EA5E9" stroke-width="21" stroke-linecap="round"/>
<path opacity="0.8" d="M307.2 245.76C260.407 272.696 221.54 311.488 194.514 358.229C167.488 404.97 153.258 458.008 153.258 512C153.258 565.992 167.488 619.03 194.514 665.771C221.54 712.512 260.407 751.304 307.2 778.24" stroke="#0EA5E9" stroke-width="17.5" stroke-linecap="round"/>
<path opacity="0.5" d="M235.52 133.12C169.72 172.082 115.202 227.509 77.332 293.944C39.4624 360.378 19.5472 435.53 19.5472 512C19.5472 588.47 39.4624 663.622 77.332 730.056C115.202 796.491 169.72 851.918 235.52 890.88" stroke="#0EA5E9" stroke-width="14" stroke-linecap="round"/>
<path d="M389.12 544.768C407.217 544.768 421.888 530.097 421.888 512C421.888 493.903 407.217 479.232 389.12 479.232C371.023 479.232 356.352 493.903 356.352 512C356.352 530.097 371.023 544.768 389.12 544.768Z" fill="#0EA5E9"/>
<path d="M471.04 358.4V665.6L757.76 512L471.04 358.4Z" fill="#E8EAF0"/>
</g>
<defs>
<clipPath id="clip0_1_2">
<rect width="1024" height="1024" fill="white"/>
</clipPath>
</defs>
</svg>
